<!DOCTYPE svg PUBLIC "-//W3C//DTD SVG 1.1//EN" "http://www.w3.org/Graphics/SVG/1.1/DTD/svg11.dtd">
<!-- Uploaded to: SVG Repo, www.svgrepo.com, Transformed by: SVG Repo Mixer Tools -->
<svg fill="#ffffff" width="800px" height="800px" viewBox="0 0 512 512" xmlns="http://www.w3.org/2000/svg" stroke="#ffffff">
<g id="SVGRepo_bgCarrier" stroke-width="0"/>
<g id="SVGRepo_tracerCarrier" stroke-linecap="round" stroke-linejoin="round" stroke="#CCCCCC" stroke-width="10.24">
<title>ionicons-v5_logos</title>
<polygon points="179.9 388 179.9 388 103.74 256 179.9 388" style="fill:none"/>
<polygon points="179.9 388 332.11 388 408.26 256 332.11 124 179.9 124 103.74 256 179.9 388" style="fill:none"/>
<polygon points="103.74 256 179.9 124 179.9 124 103.74 256" style="fill:none"/>
<polygon points="496 256 376 48 239.74 48 195.9 124 332.11 124 408.26 256 332.11 388 195.9 388 239.74 464 376 464 496 256"/>
<polygon points="179.9 388 103.74 256 179.9 124 179.9 124 223.74 48 136 48 16 256 136 464 223.74 464 179.9 388 179.9 388"/>
</g>
<g id="SVGRepo_iconCarrier">
<title>ionicons-v5_logos</title>
<polygon points="179.9 388 179.9 388 103.74 256 179.9 388" style="fill:none"/>
<polygon points="179.9 388 332.11 388 408.26 256 332.11 124 179.9 124 103.74 256 179.9 388" style="fill:none"/>
<polygon points="103.74 256 179.9 124 179.9 124 103.74 256" style="fill:none"/>
<polygon points="496 256 376 48 239.74 48 195.9 124 332.11 124 408.26 256 332.11 388 195.9 388 239.74 464 376 464 496 256"/>
<polygon points="179.9 388 103.74 256 179.9 124 179.9 124 223.74 48 136 48 16 256 136 464 223.74 464 179.9 388 179.9 388"/>
</g>
</svg>