<?xml version="1.0" standalone="no"?>
<!DOCTYPE svg PUBLIC "-//W3C//DTD SVG 20010904//EN"
 "http://www.w3.org/TR/2001/REC-SVG-20010904/DTD/svg10.dtd">
<svg version="1.0" xmlns="http://www.w3.org/2000/svg"
 width="222.000000pt" height="222.000000pt" viewBox="0 0 222.000000 222.000000"
 preserveAspectRatio="xMidYMid meet">

<g transform="translate(0.000000,222.000000) scale(0.100000,-0.100000)"
fill="#000000" stroke="none">
<path d="M240 1770 l0 -210 210 0 210 0 0 210 0 210 -210 0 -210 0 0 -210z
m360 0 l0 -150 -150 0 -150 0 0 150 0 150 150 0 150 0 0 -150z"/>
<path d="M360 1770 l0 -90 90 0 90 0 0 90 0 90 -90 0 -90 0 0 -90z"/>
<path d="M720 1890 l0 -90 30 0 c27 0 30 -3 30 -30 0 -27 -3 -30 -30 -30 -27
0 -30 -3 -30 -30 l0 -30 60 0 60 0 0 -90 0 -90 -210 0 -210 0 0 -120 0 -120
-30 0 c-27 0 -30 -3 -30 -30 0 -27 -3 -30 -30 -30 l-30 0 0 -60 0 -60 -30 0
-30 0 0 -60 0 -60 30 0 c27 0 30 -3 30 -30 l0 -30 60 0 60 0 0 -30 c0 -27 3
-30 30 -30 l30 0 0 60 0 60 30 0 c27 0 30 -3 30 -30 0 -27 3 -30 30 -30 27 0
30 -3 30 -30 0 -27 3 -30 30 -30 27 0 30 -3 30 -30 l0 -30 -60 0 -60 0 0 -30
0 -30 90 0 90 0 0 -150 0 -150 30 0 c27 0 30 -3 30 -30 0 -27 3 -30 30 -30 27
0 30 -3 30 -30 l0 -30 60 0 60 0 0 -30 0 -30 150 0 150 0 0 30 c0 27 -3 30
-30 30 l-30 0 0 60 0 60 -30 0 -30 0 0 -60 0 -60 -90 0 -90 0 0 30 0 30 -60 0
-60 0 0 30 c0 27 3 30 30 30 27 0 30 3 30 30 0 27 -3 30 -30 30 -27 0 -30 3
-30 30 0 27 3 30 30 30 l30 0 0 60 0 60 60 0 60 0 0 30 c0 27 3 30 30 30 l30
0 0 -90 0 -90 -30 0 c-27 0 -30 3 -30 30 0 27 -3 30 -30 30 -27 0 -30 -3 -30
-30 0 -27 3 -30 30 -30 27 0 30 -3 30 -30 l0 -30 60 0 60 0 0 30 c0 27 3 30
30 30 27 0 30 -3 30 -30 0 -27 3 -30 30 -30 l30 0 0 -60 0 -60 30 0 c27 0 30
3 30 30 0 27 3 30 30 30 27 0 30 3 30 30 l0 30 60 0 60 0 0 -30 c0 -27 -3 -30
-30 -30 -27 0 -30 -3 -30 -30 l0 -30 60 0 60 0 0 -60 0 -60 30 0 c27 0 30 3
30 30 0 27 3 30 30 30 27 0 30 -3 30 -30 0 -27 3 -30 30 -30 27 0 30 3 30 30
l0 30 60 0 60 0 0 30 c0 27 3 30 30 30 27 0 30 -3 30 -30 0 -27 3 -30 30 -30
l30 0 0 60 0 60 -30 0 c-27 0 -30 3 -30 30 0 27 -3 30 -30 30 -27 0 -30 -3
-30 -30 0 -27 -3 -30 -30 -30 -27 0 -30 -3 -30 -30 0 -27 -3 -30 -30 -30 -27
0 -30 3 -30 30 l0 30 -60 0 -60 0 0 -30 c0 -27 -3 -30 -30 -30 l-30 0 0 60 0
60 120 0 120 0 0 30 c0 27 -3 30 -30 30 -27 0 -30 3 -30 30 0 27 3 30 30 30
l30 0 0 60 0 60 60 0 60 0 0 30 c0 27 -3 30 -30 30 -27 0 -30 3 -30 30 0 27
-3 30 -30 30 -27 0 -30 3 -30 30 l0 30 60 0 60 0 0 -30 c0 -27 3 -30 30 -30
27 0 30 3 30 30 0 27 -3 30 -30 30 -27 0 -30 3 -30 30 l0 30 -60 0 -60 0 0 30
c0 27 3 30 30 30 l30 0 0 60 0 60 30 0 30 0 0 -60 0 -60 30 0 30 0 0 150 0
150 -30 0 -30 0 0 -60 0 -60 -120 0 -120 0 0 60 0 60 30 0 c27 0 30 -3 30 -30
0 -27 3 -30 30 -30 27 0 30 3 30 30 0 27 3 30 30 30 27 0 30 3 30 30 0 27 3
30 30 30 27 0 30 3 30 30 0 27 3 30 30 30 27 0 30 3 30 30 l0 30 -90 0 -90 0
0 -90 0 -90 -30 0 -30 0 0 90 0 90 -30 0 c-27 0 -30 -3 -30 -30 0 -27 -3 -30
-30 -30 l-30 0 0 -60 0 -60 -90 0 -90 0 0 -60 0 -60 -60 0 -60 0 0 30 c0 27 3
30 30 30 l30 0 0 60 0 60 30 0 30 0 0 60 0 60 30 0 30 0 0 -60 0 -60 30 0 30
0 0 60 0 60 -30 0 -30 0 0 90 0 90 -30 0 c-27 0 -30 3 -30 30 l0 30 -60 0 -60
0 0 30 c0 27 -3 30 -30 30 -27 0 -30 3 -30 30 l0 30 120 0 120 0 0 30 0 30
-90 0 -90 0 0 30 0 30 -90 0 -90 0 0 -30 c0 -27 3 -30 30 -30 27 0 30 -3 30
-30 0 -27 -3 -30 -30 -30 -27 0 -30 -3 -30 -30 0 -27 3 -30 30 -30 27 0 30 -3
30 -30 l0 -30 -60 0 -60 0 0 -30 c0 -27 3 -30 30 -30 27 0 30 -3 30 -30 0 -27
-3 -30 -30 -30 -27 0 -30 -3 -30 -30 0 -27 -3 -30 -30 -30 l-30 0 0 180 0 180
-90 0 -90 0 0 30 0 30 -60 0 -60 0 0 -90z m120 -60 c0 -27 -3 -30 -30 -30 -27
0 -30 3 -30 30 0 27 3 30 30 30 27 0 30 -3 30 -30z m120 -120 c0 -27 -3 -30
-30 -30 -27 0 -30 3 -30 30 0 27 3 30 30 30 27 0 30 -3 30 -30z m360 0 c0 -27
-3 -30 -30 -30 -27 0 -30 3 -30 30 0 27 3 30 30 30 27 0 30 -3 30 -30z m120
-90 l0 -60 -30 0 -30 0 0 60 0 60 30 0 30 0 0 -60z m-480 -60 l0 -60 30 0 30
0 0 -60 0 -60 -30 0 c-27 0 -30 -3 -30 -30 l0 -30 -60 0 -60 0 0 -30 c0 -27 3
-30 30 -30 27 0 30 -3 30 -30 0 -27 3 -30 30 -30 27 0 30 3 30 30 0 27 3 30
30 30 27 0 30 -3 30 -30 0 -27 -3 -30 -30 -30 -27 0 -30 -3 -30 -30 0 -27 3
-30 30 -30 27 0 30 -3 30 -30 0 -27 3 -30 30 -30 27 0 30 3 30 30 0 27 3 30
30 30 27 0 30 3 30 30 0 27 -3 30 -30 30 l-30 0 0 180 0 180 30 0 c27 0 30 3
30 30 0 27 3 30 30 30 27 0 30 -3 30 -30 0 -27 -3 -30 -30 -30 -27 0 -30 -3
-30 -30 l0 -30 60 0 60 0 0 60 0 60 30 0 30 0 0 -60 0 -60 30 0 c27 0 30 -3
30 -30 l0 -30 -90 0 -90 0 0 -30 c0 -27 -3 -30 -30 -30 -27 0 -30 -3 -30 -30
0 -27 3 -30 30 -30 27 0 30 -3 30 -30 0 -27 -3 -30 -30 -30 -27 0 -30 -3 -30
-30 0 -27 3 -30 30 -30 l30 0 0 -60 0 -60 30 0 30 0 0 60 0 60 30 0 c27 0 30
-3 30 -30 0 -27 3 -30 30 -30 l30 0 0 -90 0 -90 -30 0 c-27 0 -30 -3 -30 -30
0 -27 3 -30 30 -30 27 0 30 -3 30 -30 0 -27 -3 -30 -30 -30 -27 0 -30 -3 -30
-30 l0 -30 60 0 60 0 0 90 0 90 60 0 60 0 0 30 0 30 -60 0 -60 0 0 30 0 30 90
0 90 0 0 30 c0 27 3 30 30 30 27 0 30 -3 30 -30 0 -27 -3 -30 -30 -30 -27 0
-30 -3 -30 -30 l0 -30 60 0 60 0 0 60 0 60 30 0 30 0 0 -60 0 -60 -30 0 c-27
0 -30 -3 -30 -30 0 -27 3 -30 30 -30 27 0 30 -3 30 -30 0 -27 -3 -30 -30 -30
-27 0 -30 3 -30 30 0 27 -3 30 -30 30 l-30 0 0 -60 0 -60 30 0 c27 0 30 -3 30
-30 l0 -30 -60 0 -60 0 0 30 c0 27 -3 30 -30 30 -27 0 -30 -3 -30 -30 l0 -30
-60 0 -60 0 0 -60 0 -60 -30 0 c-27 0 -30 -3 -30 -30 0 -27 -3 -30 -30 -30
-27 0 -30 3 -30 30 0 27 3 30 30 30 27 0 30 3 30 30 l0 30 -60 0 -60 0 0 -90
0 -90 60 0 60 0 0 -30 0 -30 -60 0 -60 0 0 30 c0 27 -3 30 -30 30 -27 0 -30 3
-30 30 0 27 -3 30 -30 30 l-30 0 0 60 0 60 60 0 60 0 0 30 0 30 -60 0 -60 0 0
30 c0 27 -3 30 -30 30 -27 0 -30 -3 -30 -30 l0 -30 -60 0 -60 0 0 -30 c0 -27
-3 -30 -30 -30 l-30 0 0 60 0 60 -30 0 -30 0 0 -90 0 -90 -30 0 c-27 0 -30 3
-30 30 0 27 -3 30 -30 30 l-30 0 0 60 0 60 -30 0 c-27 0 -30 3 -30 30 0 27 -3
30 -30 30 -27 0 -30 3 -30 30 0 27 -3 30 -30 30 -27 0 -30 3 -30 30 0 27 -3
30 -30 30 -27 0 -30 -3 -30 -30 0 -27 -3 -30 -30 -30 -27 0 -30 3 -30 30 l0
30 -60 0 -60 0 0 30 0 30 90 0 90 0 0 30 c0 27 -3 30 -30 30 -27 0 -30 3 -30
30 0 27 3 30 30 30 27 0 30 -3 30 -30 l0 -30 60 0 60 0 0 30 c0 27 3 30 30 30
27 0 30 3 30 30 l0 30 -60 0 -60 0 0 30 0 30 60 0 60 0 0 30 c0 27 -3 30 -30
30 -27 0 -30 3 -30 30 l0 30 60 0 60 0 0 -60 0 -60 -30 0 c-27 0 -30 -3 -30
-30 l0 -30 60 0 60 0 0 30 c0 27 3 30 30 30 27 0 30 3 30 30 0 27 3 30 30 30
l30 0 0 120 0 120 30 0 30 0 0 -60z m600 -360 l0 -60 -60 0 -60 0 0 30 c0 27
3 30 30 30 27 0 30 3 30 30 0 27 3 30 30 30 l30 0 0 -60z m120 -570 l0 -90
-90 0 -90 0 0 90 0 90 90 0 90 0 0 -90z m60 -300 c0 -27 -3 -30 -30 -30 -27 0
-30 3 -30 30 0 27 3 30 30 30 27 0 30 -3 30 -30z"/>
<path d="M780 1230 l0 -30 -60 0 -60 0 0 -30 c0 -27 -3 -30 -30 -30 -27 0 -30
-3 -30 -30 0 -27 -3 -30 -30 -30 -27 0 -30 -3 -30 -30 0 -27 3 -30 30 -30 27
0 30 -3 30 -30 l0 -30 60 0 60 0 0 -30 c0 -27 3 -30 30 -30 27 0 30 -3 30 -30
0 -27 3 -30 30 -30 27 0 30 3 30 30 0 27 -3 30 -30 30 l-30 0 0 60 0 60 60 0
60 0 0 -60 0 -60 30 0 c27 0 30 3 30 30 0 27 3 30 30 30 27 0 30 -3 30 -30 l0
-30 60 0 60 0 0 -30 c0 -27 3 -30 30 -30 27 0 30 3 30 30 0 27 3 30 30 30 27
0 30 -3 30 -30 0 -27 3 -30 30 -30 27 0 30 3 30 30 0 27 -3 30 -30 30 -27 0
-30 3 -30 30 0 27 3 30 30 30 27 0 30 3 30 30 l0 30 -60 0 -60 0 0 30 c0 27
-3 30 -30 30 -27 0 -30 -3 -30 -30 0 -27 -3 -30 -30 -30 -27 0 -30 -3 -30 -30
0 -27 -3 -30 -30 -30 -27 0 -30 3 -30 30 0 27 -3 30 -30 30 -27 0 -30 3 -30
30 l0 30 -60 0 -60 0 0 30 c0 27 3 30 30 30 27 0 30 3 30 30 0 27 -3 30 -30
30 -27 0 -30 3 -30 30 0 27 -3 30 -30 30 -27 0 -30 -3 -30 -30z m60 -60 c0
-27 -3 -30 -30 -30 -27 0 -30 -3 -30 -30 l0 -30 -60 0 -60 0 0 -30 c0 -27 -3
-30 -30 -30 -27 0 -30 3 -30 30 0 27 3 30 30 30 27 0 30 3 30 30 l0 30 60 0
60 0 0 30 c0 27 3 30 30 30 27 0 30 -3 30 -30z m360 -210 l0 -60 -30 0 -30 0
0 60 0 60 30 0 30 0 0 -60z"/>
<path d="M1560 630 c0 -27 3 -30 30 -30 27 0 30 3 30 30 0 27 -3 30 -30 30
-27 0 -30 -3 -30 -30z"/>
<path d="M1560 1770 l0 -210 210 0 210 0 0 210 0 210 -210 0 -210 0 0 -210z
m360 0 l0 -150 -150 0 -150 0 0 150 0 150 150 0 150 0 0 -150z"/>
<path d="M1680 1770 l0 -90 90 0 90 0 0 90 0 90 -90 0 -90 0 0 -90z"/>
<path d="M720 1590 c0 -27 3 -30 30 -30 27 0 30 3 30 30 0 27 -3 30 -30 30
-27 0 -30 -3 -30 -30z"/>
<path d="M240 1410 l0 -90 60 0 60 0 0 30 c0 27 -3 30 -30 30 l-30 0 0 60 0
60 -30 0 -30 0 0 -90z"/>
<path d="M420 750 c0 -27 3 -30 30 -30 27 0 30 3 30 30 0 27 -3 30 -30 30 -27
0 -30 -3 -30 -30z"/>
<path d="M240 450 l0 -210 210 0 210 0 0 210 0 210 -210 0 -210 0 0 -210z
m360 0 l0 -150 -150 0 -150 0 0 150 0 150 150 0 150 0 0 -150z"/>
<path d="M360 450 l0 -90 90 0 90 0 0 90 0 90 -90 0 -90 0 0 -90z"/>
<path d="M1020 390 c0 -27 3 -30 30 -30 27 0 30 3 30 30 0 27 -3 30 -30 30
-27 0 -30 -3 -30 -30z"/>
<path d="M720 270 c0 -27 3 -30 30 -30 27 0 30 3 30 30 0 27 -3 30 -30 30 -27
0 -30 -3 -30 -30z"/>
<path d="M1380 270 l0 -30 60 0 60 0 0 30 0 30 -60 0 -60 0 0 -30z"/>
</g>
</svg>
